{
.appVersion = "895";
copyright = "Copyright 2016 Google Inc. All Rights Reserved.";
customParameters = (
{
name = description;
value = "Data unhinted. Designed by Monotype design team.";
},
{
name = license;
value = "This Font Software is licensed under the SIL Open Font License, Version 1.1. This Font Software is distributed on an \"AS IS\" BASIS, WITHOUT WARRANTIES OR CONDITIONS OF ANY KIND, either express or implied. See the SIL Open Font License for the specific language, permissions and limitations governing your use of this Font Software.";
},
{
name = licenseURL;
value = "http://scripts.sil.org/OFL";
},
{
name = vendorID;
value = GOOG;
},
{
name = panose;
value = (
2,
11,
5,
2,
4,
5,
4,
2,
2,
4
);
},
{
name = unicodeRanges;
value = (
57,
121
);
},
{
name = codePageRanges;
value = (
1252
);
}
);
date = "2016-11-10 14:06:56 +0000";
designer = "Monotype Design Team";
designerURL = "http://www.monotype.com/studio";
familyName = "Noto Sans Carian";
fontMaster = (
{
ascender = 2189;
capHeight = 1434;
customParameters = (
{
name = typoAscender;
value = 2189;
},
{
name = typoDescender;
value = -600;
},
{
name = typoLineGap;
value = 0;
},
{
name = winAscent;
value = 2189;
},
{
name = winDescent;
value = 600;
},
{
name = hheaAscender;
value = 2189;
},
{
name = hheaDescender;
value = -600;
},
{
name = underlinePosition;
value = -205;
},
{
name = underlineThickness;
value = 102;
}
);
descender = -600;
id = "F237E6AF-0333-4400-99CC-6EA362D5F741";
weightValue = 400;
widthValue = 5;
xHeight = 1024;
}
);
glyphs = (
{
glyphname = .notdef;
lastChange = "2016-11-10 14:06:49 +0000";
layers = (
{
layerId = "F237E6AF-0333-4400-99CC-6EA362D5F741";
paths = (
{
closed = 1;
nodes = (
"922 0 LINE",
"922 1462 LINE",
"102 1462 LINE",
"102 0 LINE"
);
},
{
closed = 1;
nodes = (
"201 1364 LINE",
"823 1364 LINE",
"823 98 LINE",
"201 98 LINE"
);
}
);
width = 1024;
}
);
note = .notdef;
},
{
glyphname = g4;
lastChange = "2016-11-10 14:06:49 +0000";
layers = (
{
layerId = "F237E6AF-0333-4400-99CC-6EA362D5F741";
paths = (
{
closed = 1;
nodes = (
"186 0 LINE",
"360 457 LINE",
"940 457 LINE",
"1116 0 LINE",
"1307 0 LINE",
"737 1468 LINE",
"571 1468 LINE",
"0 0 LINE"
);
},
{
closed = 1;
nodes = (
"588 1059 LINE SMOOTH",
"607 1112 OFFCURVE",
"628 1185 OFFCURVE",
"651 1278 CURVE",
"721 1059 LINE",
"885 616 LINE",
"422 616 LINE"
);
}
);
width = 1309;
}
);
note = g4;
},
{
glyphname = g5;
lastChange = "2016-11-10 14:06:49 +0000";
layers = (
{
layerId = "F237E6AF-0333-4400-99CC-6EA362D5F741";
paths = (
{
closed = 1;
nodes = (
"714 0 LINE SMOOTH",
"1034 0 OFFCURVE",
"1222 155 OFFCURVE",
"1222 416 CURVE SMOOTH",
"1222 609 OFFCURVE",
"1119 727 OFFCURVE",
"894 766 CURVE",
"894 776 LINE",
"1075 809 OFFCURVE",
"1172 927 OFFCURVE",
"1172 1100 CURVE SMOOTH",
"1172 1349 OFFCURVE",
"1009 1462 OFFCURVE",
"617 1462 CURVE SMOOTH",
"200 1462 LINE",
"200 0 LINE"
);
},
{
closed = 1;
nodes = (
"384 685 LINE",
"665 685 LINE SMOOTH",
"910 685 OFFCURVE",
"1025 602 OFFCURVE",
"1025 430 CURVE SMOOTH",
"1025 246 OFFCURVE",
"911 158 OFFCURVE",
"679 158 CURVE SMOOTH",
"384 158 LINE"
);
},
{
closed = 1;
nodes = (
"384 1304 LINE",
"626 1304 LINE SMOOTH",
"873 1304 OFFCURVE",
"982 1239 OFFCURVE",
"982 1079 CURVE SMOOTH",
"982 908 OFFCURVE",
"886 841 OFFCURVE",
"654 841 CURVE SMOOTH",
"384 841 LINE"
);
}
);
width = 1332;
}
);
note = g5;
},
{
glyphname = g6;
lastChange = "2016-11-10 14:06:49 +0000";
layers = (
{
layerId = "F237E6AF-0333-4400-99CC-6EA362D5F741";
paths = (
{
closed = 1;
nodes = (
"946 -20 OFFCURVE",
"1050 -6 OFFCURVE",
"1174 39 CURVE",
"1174 199 LINE",
"1044 160 OFFCURVE",
"927 141 OFFCURVE",
"823 141 CURVE SMOOTH",
"500 141 OFFCURVE",
"319 354 OFFCURVE",
"319 731 CURVE SMOOTH",
"319 1096 OFFCURVE",
"510 1321 OFFCURVE",
"825 1321 CURVE SMOOTH",
"930 1321 OFFCURVE",
"1040 1294 OFFCURVE",
"1157 1241 CURVE",
"1231 1397 LINE",
"1116 1454 OFFCURVE",
"982 1483 OFFCURVE",
"827 1483 CURVE SMOOTH",
"683 1483 OFFCURVE",
"558 1452 OFFCURVE",
"452 1391 CURVE SMOOTH",
"239 1268 OFFCURVE",
"125 1034 OFFCURVE",
"125 733 CURVE SMOOTH",
"125 253 OFFCURVE",
"366 -20 OFFCURVE",
"797 -20 CURVE SMOOTH"
);
}
);
width = 1294;
}
);
note = g6;
},
{
glyphname = g7;
lastChange = "2016-11-10 14:06:49 +0000";
layers = (
{
layerId = "F237E6AF-0333-4400-99CC-6EA362D5F741";
paths = (
{
closed = 1;
nodes = (
"1168 0 LINE",
"1168 111 LINE",
"705 1462 LINE",
"521 1462 LINE",
"60 113 LINE",
"60 0 LINE"
);
},
{
closed = 1;
nodes = (
"517 932 LINE SMOOTH",
"546 1019 OFFCURVE",
"577 1129 OFFCURVE",
"611 1262 CURVE",
"632 1170 OFFCURVE",
"664 1057 OFFCURVE",
"709 924 CURVE SMOOTH",
"967 158 LINE",
"255 158 LINE"
);
}
);
width = 1228;
}
);
note = g7;
},
{
glyphname = g8;
lastChange = "2016-11-10 14:06:49 +0000";
layers = (
{
layerId = "F237E6AF-0333-4400-99CC-6EA362D5F741";
paths = (
{
closed = 1;
nodes = (
"1077 138 LINE",
"384 295 LINE",
"384 719 LINE",
"877 609 LINE",
"912 767 LINE",
"384 885 LINE",
"384 1296 LINE",
"1042 1147 LINE",
"1077 1305 LINE",
"384 1462 LINE",
"200 1462 LINE",
"200 0 LINE",
"384 0 LINE",
"384 129 LINE",
"1042 -20 LINE"
);
}
);
width = 1177;
}
);
note = g8;
},
{
glyphname = g9;
lastChange = "2016-11-10 14:06:49 +0000";
layers = (
{
layerId = "F237E6AF-0333-4400-99CC-6EA362D5F741";
paths = (
{
closed = 1;
nodes = (
"384 0 LINE",
"384 719 LINE",
"877 609 LINE",
"912 767 LINE",
"384 885 LINE",
"384 1296 LINE",
"1042 1147 LINE",
"1077 1305 LINE",
"384 1462 LINE",
"200 1462 LINE",
"200 0 LINE"
);
}
);
width = 1177;
}
);
note = g9;
},
{
glyphname = g10;
lastChange = "2016-11-10 14:06:49 +0000";
layers = (
{
layerId = "F237E6AF-0333-4400-99CC-6EA362D5F741";
paths = (
{
closed = 1;
nodes = (
"925 0 LINE",
"925 158 LINE",
"604 158 LINE",
"604 1304 LINE",
"925 1304 LINE",
"925 1462 LINE",
"100 1462 LINE",
"100 1304 LINE",
"420 1304 LINE",
"420 158 LINE",
"100 158 LINE",
"100 0 LINE"
);
}
);
width = 1025;
}
);
note = g10;
},
{
glyphname = g11;
lastChange = "2016-11-10 14:06:49 +0000";
layers = (
{
layerId = "F237E6AF-0333-4400-99CC-6EA362D5F741";
paths = (
{
closed = 1;
nodes = (
"1318 0 LINE",
"1318 1462 LINE",
"200 1462 LINE",
"200 0 LINE"
);
},
{
closed = 1;
nodes = (
"384 685 LINE",
"1134 685 LINE",
"1134 158 LINE",
"384 158 LINE"
);
},
{
closed = 1;
nodes = (
"384 1304 LINE",
"1134 1304 LINE",
"1134 841 LINE",
"384 841 LINE"
);
}
);
width = 1518;
}
);
note = g11;
},
{
glyphname = g12;
lastChange = "2016-11-10 14:06:49 +0000";
layers = (
{
layerId = "F237E6AF-0333-4400-99CC-6EA362D5F741";
paths = (
{
closed = 1;
nodes = (
"1226 -20 OFFCURVE",
"1475 265 OFFCURVE",
"1475 733 CURVE SMOOTH",
"1475 1204 OFFCURVE",
"1227 1485 OFFCURVE",
"803 1485 CURVE SMOOTH",
"367 1485 OFFCURVE",
"125 1211 OFFCURVE",
"125 735 CURVE SMOOTH",
"125 255 OFFCURVE",
"370 -20 OFFCURVE",
"801 -20 CURVE SMOOTH"
);
},
{
closed = 1;
nodes = (
"463 176 OFFCURVE",
"325 369 OFFCURVE",
"314 685 CURVE",
"708 685 LINE",
"708 140 LINE"
);
},
{
closed = 1;
nodes = (
"892 685 LINE",
"1285 685 LINE",
"1272 360 OFFCURVE",
"1133 174 OFFCURVE",
"892 139 CURVE"
);
},
{
closed = 1;
nodes = (
"342 1118 OFFCURVE",
"479 1289 OFFCURVE",
"708 1322 CURVE",
"708 841 LINE",
"318 841 LINE"
);
},
{
closed = 1;
nodes = (
"892 1323 LINE",
"1123 1290 OFFCURVE",
"1256 1124 OFFCURVE",
"1281 841 CURVE",
"892 841 LINE"
);
}
);
width = 1600;
}
);
note = g12;
},
{
glyphname = g13;
lastChange = "2016-11-10 14:06:49 +0000";
layers = (
{
layerId = "F237E6AF-0333-4400-99CC-6EA362D5F741";
paths = (
{
closed = 1;
nodes = (
"384 0 LINE",
"384 1296 LINE",
"1042 1147 LINE",
"1077 1305 LINE",
"384 1462 LINE",
"200 1462 LINE",
"200 0 LINE"
);
}
);
width = 1177;
}
);
note = g13;
},
{
glyphname = g14;
lastChange = "2016-11-10 14:06:49 +0000";
layers = (
{
layerId = "F237E6AF-0333-4400-99CC-6EA362D5F741";
paths = (
{
closed = 1;
nodes = (
"384 0 LINE",
"384 807 LINE SMOOTH",
"384 949 OFFCURVE",
"378 1088 OFFCURVE",
"367 1224 CURVE",
"375 1224 LINE",
"1190 380 LINE",
"1375 380 LINE",
"1375 1462 LINE",
"1191 1462 LINE",
"1191 1027 LINE SMOOTH",
"1191 947 OFFCURVE",
"1202 644 OFFCURVE",
"1205 612 CURVE",
"1197 612 LINE",
"387 1462 LINE",
"200 1462 LINE",
"200 0 LINE"
);
}
);
width = 1575;
}
);
note = g14;
},
{
glyphname = g15;
lastChange = "2016-11-10 14:06:49 +0000";
layers = (
{
layerId = "F237E6AF-0333-4400-99CC-6EA362D5F741";
paths = (
{
closed = 1;
nodes = (
"1226 -20 OFFCURVE",
"1475 265 OFFCURVE",
"1475 733 CURVE SMOOTH",
"1475 1204 OFFCURVE",
"1227 1485 OFFCURVE",
"803 1485 CURVE SMOOTH",
"367 1485 OFFCURVE",
"125 1211 OFFCURVE",
"125 735 CURVE SMOOTH",
"125 255 OFFCURVE",
"370 -20 OFFCURVE",
"801 -20 CURVE SMOOTH"
);
},
{
closed = 1;
nodes = (
"486 139 OFFCURVE",
"319 346 OFFCURVE",
"319 733 CURVE SMOOTH",
"319 1118 OFFCURVE",
"486 1323 OFFCURVE",
"803 1323 CURVE SMOOTH",
"1116 1323 OFFCURVE",
"1280 1124 OFFCURVE",
"1280 733 CURVE SMOOTH",
"1280 341 OFFCURVE",
"1114 139 OFFCURVE",
"801 139 CURVE SMOOTH"
);
}
);
width = 1599;
}
);
note = g15;
},
{
glyphname = g16;
lastChange = "2016-11-10 14:06:49 +0000";
layers = (
{
layerId = "F237E6AF-0333-4400-99CC-6EA362D5F741";
paths = (
{
closed = 1;
nodes = (
"384 0 LINE",
"384 953 LINE SMOOTH",
"384 1208 OFFCURVE",
"485 1323 OFFCURVE",
"744 1323 CURVE SMOOTH",
"1023 1323 OFFCURVE",
"1172 1170 OFFCURVE",
"1172 873 CURVE SMOOTH",
"1172 830 LINE",
"1356 830 LINE",
"1356 873 LINE SMOOTH",
"1356 1288 OFFCURVE",
"1141 1485 OFFCURVE",
"744 1485 CURVE SMOOTH",
"397 1485 OFFCURVE",
"200 1307 OFFCURVE",
"200 1000 CURVE SMOOTH",
"200 0 LINE"
);
}
);
width = 1456;
}
);
note = g16;
},
{
glyphname = g17;
lastChange = "2016-11-10 14:06:49 +0000";
layers = (
{
layerId = "F237E6AF-0333-4400-99CC-6EA362D5F741";
paths = (
{
closed = 1;
nodes = (
"814 0 LINE",
"814 379 LINE",
"1130 410 OFFCURVE",
"1323 615 OFFCURVE",
"1323 930 CURVE SMOOTH",
"1323 1274 OFFCURVE",
"1097 1485 OFFCURVE",
"725 1485 CURVE SMOOTH",
"602 1485 OFFCURVE",
"496 1462 OFFCURVE",
"405 1417 CURVE SMOOTH",
"224 1326 OFFCURVE",
"125 1151 OFFCURVE",
"125 931 CURVE SMOOTH",
"125 830 OFFCURVE",
"145 739 OFFCURVE",
"185 660 CURVE SMOOTH",
"265 500 OFFCURVE",
"425 399 OFFCURVE",
"634 379 CURVE",
"634 0 LINE"
);
},
{
closed = 1;
nodes = (
"461 537 OFFCURVE",
"319 673 OFFCURVE",
"319 930 CURVE SMOOTH",
"319 1185 OFFCURVE",
"458 1323 OFFCURVE",
"725 1323 CURVE SMOOTH",
"992 1323 OFFCURVE",
"1129 1183 OFFCURVE",
"1129 930 CURVE SMOOTH",
"1129 670 OFFCURVE",
"983 537 OFFCURVE",
"722 537 CURVE SMOOTH"
);
}
);
width = 1448;
}
);
note = g17;
},
{
glyphname = g18;
lastChange = "2016-11-10 14:06:49 +0000";
layers = (
{
layerId = "F237E6AF-0333-4400-99CC-6EA362D5F741";
paths = (
{
closed = 1;
nodes = (
"1064 0 LINE",
"1064 1462 LINE",
"880 1462 LINE",
"880 1209 LINE",
"683 1209 LINE SMOOTH",
"311 1209 OFFCURVE",
"125 1063 OFFCURVE",
"125 772 CURVE SMOOTH",
"125 472 OFFCURVE",
"334 315 OFFCURVE",
"714 315 CURVE SMOOTH",
"880 315 LINE",
"880 0 LINE"
);
},
{
closed = 1;
nodes = (
"437 473 OFFCURVE",
"319 563 OFFCURVE",
"319 772 CURVE SMOOTH",
"319 964 OFFCURVE",
"437 1051 OFFCURVE",
"698 1051 CURVE SMOOTH",
"880 1051 LINE",
"880 473 LINE",
"733 473 LINE SMOOTH"
);
}
);
width = 1264;
}
);
note = g18;
},
{
glyphname = g19;
lastChange = "2016-11-10 14:06:49 +0000";
layers = (
{
layerId = "F237E6AF-0333-4400-99CC-6EA362D5F741";
paths = (
{
closed = 1;
nodes = (
"384 0 LINE",
"384 392 LINE",
"735 135 LINE",
"830 265 LINE",
"416 568 LINE",
"552 568 LINE SMOOTH",
"680 568 OFFCURVE",
"788 587 OFFCURVE",
"875 624 CURVE SMOOTH",
"1050 699 OFFCURVE",
"1139 839 OFFCURVE",
"1139 1032 CURVE SMOOTH",
"1139 1319 OFFCURVE",
"955 1462 OFFCURVE",
"587 1462 CURVE SMOOTH",
"200 1462 LINE",
"200 0 LINE"
);
},
{
closed = 1;
nodes = (
"384 1304 LINE",
"570 1304 LINE SMOOTH",
"827 1304 OFFCURVE",
"945 1211 OFFCURVE",
"945 1023 CURVE SMOOTH",
"945 815 OFFCURVE",
"822 726 OFFCURVE",
"531 726 CURVE SMOOTH",
"384 726 LINE"
);
}
);
width = 1264;
}
);
note = g19;
},
{
glyphname = g20;
lastChange = "2016-11-10 14:06:49 +0000";
layers = (
{
layerId = "F237E6AF-0333-4400-99CC-6EA362D5F741";
paths = (
{
closed = 1;
nodes = (
"225 0 LINE",
"449 888 LINE SMOOTH",
"481 1016 OFFCURVE",
"504 1132 OFFCURVE",
"519 1236 CURVE",
"534 1127 OFFCURVE",
"560 1007 OFFCURVE",
"597 877 CURVE SMOOTH",
"851 0 LINE",
"1049 0 LINE",
"1314 884 LINE SMOOTH",
"1349 999 OFFCURVE",
"1375 1117 OFFCURVE",
"1394 1236 CURVE",
"1405 1144 OFFCURVE",
"1428 1027 OFFCURVE",
"1465 886 CURVE SMOOTH",
"1688 0 LINE",
"1883 0 LINE",
"1494 1462 LINE",
"1303 1462 LINE",
"1023 510 LINE SMOOTH",
"981 367 OFFCURVE",
"956 271 OFFCURVE",
"949 221 CURVE",
"941 279 OFFCURVE",
"918 377 OFFCURVE",
"879 516 CURVE SMOOTH",
"608 1462 LINE",
"417 1462 LINE",
"30 0 LINE"
);
}
);
width = 1913;
}
);
note = g20;
},
{
glyphname = g21;
lastChange = "2016-11-10 14:06:49 +0000";
layers = (
{
layerId = "F237E6AF-0333-4400-99CC-6EA362D5F741";
paths = (
{
closed = 1;
nodes = (
"671 0 LINE",
"671 1304 LINE",
"1126 1304 LINE",
"1126 1462 LINE",
"30 1462 LINE",
"30 1304 LINE",
"487 1304 LINE",
"487 0 LINE"
);
}
);
width = 1156;
}
);
note = g21;
},
{
glyphname = g22;
lastChange = "2016-11-10 14:06:49 +0000";
layers = (
{
layerId = "F237E6AF-0333-4400-99CC-6EA362D5F741";
paths = (
{
closed = 1;
nodes = (
"711 0 LINE",
"711 567 LINE",
"1199 1462 LINE",
"1001 1462 LINE",
"620 743 LINE",
"241 1462 LINE",
"40 1462 LINE",
"527 559 LINE",
"527 0 LINE"
);
}
);
width = 1239;
}
);
note = g22;
},
{
glyphname = g23;
lastChange = "2016-11-10 14:06:49 +0000";
layers = (
{
layerId = "F237E6AF-0333-4400-99CC-6EA362D5F741";
paths = (
{
closed = 1;
nodes = (
"818 0 LINE",
"818 200 LINE",
"1138 235 OFFCURVE",
"1327 442 OFFCURVE",
"1327 750 CURVE SMOOTH",
"1327 1062 OFFCURVE",
"1134 1269 OFFCURVE",
"818 1300 CURVE",
"818 1462 LINE",
"634 1462 LINE",
"634 1300 LINE",
"315 1267 OFFCURVE",
"125 1059 OFFCURVE",
"125 751 CURVE SMOOTH",
"125 650 OFFCURVE",
"145 559 OFFCURVE",
"185 480 CURVE SMOOTH",
"265 320 OFFCURVE",
"425 219 OFFCURVE",
"634 199 CURVE",
"634 0 LINE"
);
},
{
closed = 1;
nodes = (
"423 387 OFFCURVE",
"315 529 OFFCURVE",
"315 750 CURVE SMOOTH",
"315 978 OFFCURVE",
"430 1114 OFFCURVE",
"634 1143 CURVE",
"634 356 LINE"
);
},
{
closed = 1;
nodes = (
"818 1143 LINE",
"1023 1114 OFFCURVE",
"1137 973 OFFCURVE",
"1137 750 CURVE SMOOTH",
"1137 533 OFFCURVE",
"1027 390 OFFCURVE",
"818 357 CURVE"
);
}
);
width = 1452;
}
);
note = g23;
},
{
glyphname = g24;
lastChange = "2016-11-10 14:06:49 +0000";
layers = (
{
layerId = "F237E6AF-0333-4400-99CC-6EA362D5F741";
paths = (
{
closed = 1;
nodes = (
"205 0 LINE",
"598 635 LINE",
"985 0 LINE",
"1194 0 LINE",
"707 766 LINE",
"1159 1462 LINE",
"965 1462 LINE",
"604 889 LINE",
"246 1462 LINE",
"41 1462 LINE",
"496 762 LINE",
"10 0 LINE"
);
}
);
width = 1204;
}
);
note = g24;
},
{
glyphname = g25;
lastChange = "2016-11-10 14:06:49 +0000";
layers = (
{
layerId = "F237E6AF-0333-4400-99CC-6EA362D5F741";
paths = (
{
closed = 1;
nodes = (
"781 0 LINE",
"781 557 LINE",
"1339 1462 LINE",
"1151 1462 LINE",
"919 1075 LINE SMOOTH",
"871 995 OFFCURVE",
"825 914 OFFCURVE",
"781 832 CURVE",
"781 1462 LINE",
"597 1462 LINE",
"597 836 LINE",
"474 1053 LINE",
"228 1462 LINE",
"40 1462 LINE",
"597 557 LINE",
"597 0 LINE"
);
}
);
width = 1379;
}
);
note = g25;
},
{
glyphname = g26;
lastChange = "2016-11-10 14:06:49 +0000";
layers = (
{
layerId = "F237E6AF-0333-4400-99CC-6EA362D5F741";
paths = (
{
closed = 1;
nodes = (
"660 0 LINE",
"660 147 LINE",
"424 318 OFFCURVE",
"318 522 OFFCURVE",
"318 821 CURVE SMOOTH",
"318 1150 OFFCURVE",
"481 1323 OFFCURVE",
"793 1323 CURVE SMOOTH",
"1108 1323 OFFCURVE",
"1272 1149 OFFCURVE",
"1272 821 CURVE SMOOTH",
"1272 528 OFFCURVE",
"1164 316 OFFCURVE",
"928 147 CURVE",
"928 0 LINE",
"1518 0 LINE",
"1518 158 LINE",
"1155 158 LINE",
"1351 309 OFFCURVE",
"1465 552 OFFCURVE",
"1465 829 CURVE SMOOTH",
"1465 1240 OFFCURVE",
"1217 1485 OFFCURVE",
"793 1485 CURVE SMOOTH",
"374 1485 OFFCURVE",
"123 1238 OFFCURVE",
"123 827 CURVE SMOOTH",
"123 550 OFFCURVE",
"237 310 OFFCURVE",
"434 158 CURVE",
"70 158 LINE",
"70 0 LINE"
);
}
);
width = 1588;
}
);
note = g26;
},
{
glyphname = g27;
lastChange = "2016-11-10 14:06:49 +0000";
layers = (
{
layerId = "F237E6AF-0333-4400-99CC-6EA362D5F741";
paths = (
{
closed = 1;
nodes = (
"1883 0 LINE",
"1494 1462 LINE",
"1303 1462 LINE",
"1023 510 LINE SMOOTH",
"981 367 OFFCURVE",
"956 271 OFFCURVE",
"949 221 CURVE",
"941 279 OFFCURVE",
"918 377 OFFCURVE",
"879 516 CURVE SMOOTH",
"608 1462 LINE",
"417 1462 LINE",
"30 0 LINE"
);
},
{
closed = 1;
nodes = (
"449 888 LINE SMOOTH",
"481 1016 OFFCURVE",
"504 1132 OFFCURVE",
"519 1236 CURVE",
"534 1127 OFFCURVE",
"560 1007 OFFCURVE",
"597 877 CURVE SMOOTH",
"805 158 LINE",
"265 158 LINE"
);
},
{
closed = 1;
nodes = (
"1314 884 LINE SMOOTH",
"1349 999 OFFCURVE",
"1375 1117 OFFCURVE",
"1394 1236 CURVE",
"1405 1144 OFFCURVE",
"1428 1027 OFFCURVE",
"1465 886 CURVE SMOOTH",
"1648 158 LINE",
"1096 158 LINE"
);
}
);
width = 1913;
}
);
note = g27;
},
{
glyphname = g28;
lastChange = "2016-11-10 14:06:49 +0000";
layers = (
{
layerId = "F237E6AF-0333-4400-99CC-6EA362D5F741";
paths = (
{
closed = 1;
nodes = (
"1226 -20 OFFCURVE",
"1475 265 OFFCURVE",
"1475 733 CURVE SMOOTH",
"1475 1204 OFFCURVE",
"1227 1485 OFFCURVE",
"803 1485 CURVE SMOOTH",
"367 1485 OFFCURVE",
"125 1211 OFFCURVE",
"125 735 CURVE SMOOTH",
"125 255 OFFCURVE",
"370 -20 OFFCURVE",
"801 -20 CURVE SMOOTH"
);
},
{
closed = 1;
nodes = (
"448 173 OFFCURVE",
"311 390 OFFCURVE",
"311 733 CURVE SMOOTH",
"311 1077 OFFCURVE",
"450 1288 OFFCURVE",
"707 1329 CURVE",
"707 132 LINE"
);
},
{
closed = 1;
nodes = (
"891 1331 LINE",
"1151 1292 OFFCURVE",
"1289 1082 OFFCURVE",
"1289 733 CURVE SMOOTH",
"1289 380 OFFCURVE",
"1146 168 OFFCURVE",
"891 131 CURVE"
);
}
);
width = 1600;
}
);
note = g28;
},
{
glyphname = g29;
lastChange = "2016-11-10 14:06:49 +0000";
layers = (
{
layerId = "F237E6AF-0333-4400-99CC-6EA362D5F741";
paths = (
{
closed = 1;
nodes = (
"1026 0 LINE",
"1026 1462 LINE",
"846 1462 LINE SMOOTH",
"390 1462 OFFCURVE",
"125 1201 OFFCURVE",
"125 745 CURVE SMOOTH",
"125 261 OFFCURVE",
"397 0 OFFCURVE",
"889 0 CURVE SMOOTH"
);
},
{
closed = 1;
nodes = (
"511 182 OFFCURVE",
"337 357 OFFCURVE",
"320 685 CURVE",
"842 685 LINE",
"842 160 LINE"
);
},
{
closed = 1;
nodes = (
"355 1142 OFFCURVE",
"528 1296 OFFCURVE",
"842 1304 CURVE",
"842 841 LINE",
"324 841 LINE"
);
}
);
width = 1226;
}
);
note = g29;
},
{
glyphname = g30;
lastChange = "2016-11-10 14:06:49 +0000";
layers = (
{
layerId = "F237E6AF-0333-4400-99CC-6EA362D5F741";
paths = (
{
closed = 1;
nodes = (
"1072 532 LINE",
"1072 1462 LINE",
"140 1462 LINE",
"140 532 LINE"
);
},
{
closed = 1;
nodes = (
"324 1304 LINE",
"888 1304 LINE",
"888 690 LINE",
"324 690 LINE"
);
}
);
width = 1212;
}
);
note = g30;
},
{
glyphname = g31;
lastChange = "2016-11-10 14:06:49 +0000";
layers = (
{
layerId = "F237E6AF-0333-4400-99CC-6EA362D5F741";
paths = (
{
closed = 1;
nodes = (
"698 0 LINE",
"698 532 LINE",
"1072 532 LINE",
"1072 1462 LINE",
"140 1462 LINE",
"140 532 LINE",
"514 532 LINE",
"514 0 LINE"
);
},
{
closed = 1;
nodes = (
"324 1304 LINE",
"888 1304 LINE",
"888 690 LINE",
"324 690 LINE"
);
}
);
width = 1212;
}
);
note = g31;
},
{
glyphname = g32;
lastChange = "2016-11-10 14:06:49 +0000";
layers = (
{
layerId = "F237E6AF-0333-4400-99CC-6EA362D5F741";
paths = (
{
closed = 1;
nodes = (
"705 0 LINE",
"1168 1351 LINE",
"1168 1462 LINE",
"60 1462 LINE",
"60 1349 LINE",
"521 0 LINE"
);
},
{
closed = 1;
nodes = (
"577 333 OFFCURVE",
"546 443 OFFCURVE",
"517 530 CURVE SMOOTH",
"257 1304 LINE",
"965 1304 LINE",
"709 538 LINE SMOOTH",
"664 405 OFFCURVE",
"632 292 OFFCURVE",
"611 200 CURVE"
);
}
);
width = 1228;
}
);
note = g32;
},
{
glyphname = g33;
lastChange = "2016-11-10 14:06:49 +0000";
layers = (
{
layerId = "F237E6AF-0333-4400-99CC-6EA362D5F741";
paths = (
{
closed = 1;
nodes = (
"695 0 LINE",
"695 640 LINE",
"1146 1351 LINE",
"1146 1462 LINE",
"60 1462 LINE",
"60 1349 LINE",
"511 640 LINE",
"511 0 LINE"
);
},
{
closed = 1;
nodes = (
"288 1304 LINE",
"918 1304 LINE",
"603 800 LINE"
);
}
);
width = 1206;
}
);
note = g33;
},
{
glyphname = g34;
lastChange = "2016-11-10 14:06:49 +0000";
layers = (
{
layerId = "F237E6AF-0333-4400-99CC-6EA362D5F741";
paths = (
{
closed = 1;
nodes = (
"680 1303 LINE",
"1224 747 LINE",
"1341 861 LINE",
"753 1462 LINE",
"608 1462 LINE",
"20 861 LINE",
"137 747 LINE"
);
},
{
closed = 1;
nodes = (
"680 536 LINE",
"1224 -20 LINE",
"1341 94 LINE",
"753 695 LINE",
"608 695 LINE",
"20 94 LINE",
"137 -20 LINE"
);
}
);
width = 1361;
}
);
note = g34;
},
{
glyphname = g35;
lastChange = "2016-11-10 14:06:49 +0000";
layers = (
{
layerId = "F237E6AF-0333-4400-99CC-6EA362D5F741";
paths = (
{
closed = 1;
nodes = (
"384 0 LINE",
"384 1304 LINE",
"848 1304 LINE",
"848 0 LINE",
"1032 0 LINE",
"1032 1304 LINE",
"1496 1304 LINE",
"1496 0 LINE",
"1680 0 LINE",
"1680 1462 LINE",
"200 1462 LINE",
"200 0 LINE"
);
}
);
width = 1880;
}
);
note = g35;
},
{
glyphname = g36;
lastChange = "2016-11-10 14:06:49 +0000";
layers = (
{
layerId = "F237E6AF-0333-4400-99CC-6EA362D5F741";
paths = (
{
closed = 1;
nodes = (
"1224 0 LINE",
"737 766 LINE",
"1189 1462 LINE",
"71 1462 LINE",
"526 762 LINE",
"40 0 LINE"
);
},
{
closed = 1;
nodes = (
"628 635 LINE",
"915 158 LINE",
"336 158 LINE"
);
},
{
closed = 1;
nodes = (
"378 1304 LINE",
"891 1304 LINE",
"634 889 LINE"
);
}
);
width = 1264;
}
);
note = g36;
},
{
glyphname = g37;
lastChange = "2016-11-10 14:06:49 +0000";
layers = (
{
layerId = "F237E6AF-0333-4400-99CC-6EA362D5F741";
paths = (
{
closed = 1;
nodes = (
"235 0 LINE",
"628 635 LINE",
"1015 0 LINE",
"1224 0 LINE",
"737 766 LINE",
"1189 1462 LINE",
"71 1462 LINE",
"526 762 LINE",
"40 0 LINE"
);
},
{
closed = 1;
nodes = (
"378 1304 LINE",
"891 1304 LINE",
"634 889 LINE"
);
}
);
width = 1264;
}
);
note = g37;
},
{
glyphname = g38;
lastChange = "2016-11-10 14:06:49 +0000";
layers = (
{
layerId = "F237E6AF-0333-4400-99CC-6EA362D5F741";
paths = (
{
closed = 1;
nodes = (
"1464 138 LINE",
"1172 225 OFFCURVE",
"1044 407 OFFCURVE",
"1044 728 CURVE SMOOTH",
"1044 1052 OFFCURVE",
"1181 1244 OFFCURVE",
"1464 1324 CURVE",
"1431 1482 LINE",
"1051 1399 OFFCURVE",
"850 1136 OFFCURVE",
"850 728 CURVE SMOOTH",
"850 321 OFFCURVE",
"1060 60 OFFCURVE",
"1431 -20 CURVE"
);
},
{
closed = 1;
nodes = (
"484 60 OFFCURVE",
"694 321 OFFCURVE",
"694 728 CURVE SMOOTH",
"694 1136 OFFCURVE",
"493 1399 OFFCURVE",
"113 1482 CURVE",
"80 1324 LINE",
"361 1244 OFFCURVE",
"500 1053 OFFCURVE",
"500 728 CURVE SMOOTH",
"500 405 OFFCURVE",
"371 223 OFFCURVE",
"80 138 CURVE",
"113 -20 LINE"
);
}
);
width = 1544;
}
);
note = g38;
},
{
glyphname = g39;
lastChange = "2016-11-10 14:06:49 +0000";
layers = (
{
layerId = "F237E6AF-0333-4400-99CC-6EA362D5F741";
paths = (
{
closed = 1;
nodes = (
"694 0 LINE SMOOTH",
"795 0 OFFCURVE",
"883 20 OFFCURVE",
"960 61 CURVE SMOOTH",
"1112 142 OFFCURVE",
"1199 296 OFFCURVE",
"1199 477 CURVE SMOOTH",
"1199 566 OFFCURVE",
"1178 648 OFFCURVE",
"1137 721 CURVE SMOOTH",
"1053 868 OFFCURVE",
"894 953 OFFCURVE",
"694 953 CURVE SMOOTH",
"648 953 LINE",
"648 795 LINE",
"688 795 LINE SMOOTH",
"753 795 OFFCURVE",
"810 781 OFFCURVE",
"858 754 CURVE SMOOTH",
"953 699 OFFCURVE",
"1005 598 OFFCURVE",
"1005 478 CURVE SMOOTH",
"1005 416 OFFCURVE",
"992 361 OFFCURVE",
"967 313 CURVE SMOOTH",
"916 216 OFFCURVE",
"820 158 OFFCURVE",
"688 158 CURVE SMOOTH",
"648 158 LINE",
"648 0 LINE"
);
},
{
closed = 1;
nodes = (
"676 509 LINE",
"676 667 LINE",
"636 667 LINE SMOOTH",
"571 667 OFFCURVE",
"514 681 OFFCURVE",
"467 708 CURVE SMOOTH",
"371 763 OFFCURVE",
"319 864 OFFCURVE",
"319 984 CURVE SMOOTH",
"319 1046 OFFCURVE",
"332 1101 OFFCURVE",
"357 1150 CURVE SMOOTH",
"408 1246 OFFCURVE",
"504 1304 OFFCURVE",
"636 1304 CURVE SMOOTH",
"676 1304 LINE",
"676 1462 LINE",
"630 1462 LINE SMOOTH",
"529 1462 OFFCURVE",
"441 1442 OFFCURVE",
"365 1401 CURVE SMOOTH",
"212 1320 OFFCURVE",
"125 1166 OFFCURVE",
"125 985 CURVE SMOOTH",
"125 896 OFFCURVE",
"146 814 OFFCURVE",
"188 741 CURVE SMOOTH",
"271 594 OFFCURVE",
"430 509 OFFCURVE",
"630 509 CURVE SMOOTH"
);
}
);
width = 1324;
}
);
note = g39;
},
{
glyphname = g40;
lastChange = "2016-11-10 14:06:49 +0000";
layers = (
{
layerId = "F237E6AF-0333-4400-99CC-6EA362D5F741";
paths = (
{
closed = 1;
nodes = (
"418 0 LINE",
"811 635 LINE",
"1198 0 LINE",
"1407 0 LINE",
"920 766 LINE",
"1236 1251 LINE",
"1471 871 LINE",
"1613 951 LINE",
"1288 1462 LINE",
"1178 1462 LINE",
"817 889 LINE",
"459 1462 LINE",
"345 1462 LINE",
"20 951 LINE",
"162 871 LINE",
"393 1246 LINE",
"709 762 LINE",
"223 0 LINE"
);
}
);
width = 1633;
}
);
note = g40;
},
{
glyphname = g41;
lastChange = "2016-11-10 14:06:49 +0000";
layers = (
{
layerId = "F237E6AF-0333-4400-99CC-6EA362D5F741";
paths = (
{
closed = 1;
nodes = (
"384 0 LINE",
"384 685 LINE",
"834 685 LINE",
"834 0 LINE",
"1018 0 LINE",
"1018 685 LINE",
"1468 685 LINE",
"1468 0 LINE",
"1652 0 LINE",
"1652 1462 LINE",
"1468 1462 LINE",
"1468 841 LINE",
"1018 841 LINE",
"1018 1462 LINE",
"834 1462 LINE",
"834 841 LINE",
"384 841 LINE",
"384 1462 LINE",
"200 1462 LINE",
"200 0 LINE"
);
}
);
width = 1852;
}
);
note = g41;
},
{
glyphname = g42;
lastChange = "2016-11-10 14:06:49 +0000";
layers = (
{
layerId = "F237E6AF-0333-4400-99CC-6EA362D5F741";
paths = (
{
closed = 1;
nodes = (
"1268 -20 OFFCURVE",
"1460 105 OFFCURVE",
"1527 293 CURVE",
"1377 374 LINE",
"1310 226 OFFCURVE",
"1187 142 OFFCURVE",
"1042 142 CURVE SMOOTH",
"855 142 OFFCURVE",
"736 268 OFFCURVE",
"736 484 CURVE SMOOTH",
"736 637 OFFCURVE",
"819 770 OFFCURVE",
"943 819 CURVE",
"966 924 LINE",
"520 1482 LINE",
"390 1383 LINE",
"761 921 LINE",
"60 921 LINE",
"60 765 LINE",
"644 765 LINE",
"576 668 OFFCURVE",
"542 564 OFFCURVE",
"542 453 CURVE SMOOTH",
"542 358 OFFCURVE",
"563 275 OFFCURVE",
"604 204 CURVE SMOOTH",
"687 60 OFFCURVE",
"847 -20 OFFCURVE",
"1043 -20 CURVE SMOOTH"
);
}
);
width = 1627;
}
);
note = g42;
},
{
glyphname = g43;
lastChange = "2016-11-10 14:06:49 +0000";
layers = (
{
layerId = "F237E6AF-0333-4400-99CC-6EA362D5F741";
paths = (
{
closed = 1;
nodes = (
"793 0 LINE",
"793 1215 LINE",
"1244 748 LINE",
"1361 862 LINE",
"773 1463 LINE",
"628 1463 LINE",
"40 862 LINE",
"157 748 LINE",
"609 1217 LINE",
"609 0 LINE"
);
}
);
width = 1401;
}
);
note = g43;
},
{
glyphname = g44;
lastChange = "2016-11-10 14:06:49 +0000";
layers = (
{
layerId = "F237E6AF-0333-4400-99CC-6EA362D5F741";
paths = (
{
closed = 1;
nodes = (
"1312 641 LINE",
"1312 1463 LINE",
"1128 1463 LINE",
"1128 641 LINE"
);
},
{
closed = 1;
nodes = (
"848 0 LINE",
"848 822 LINE",
"664 822 LINE",
"664 0 LINE"
);
},
{
closed = 1;
nodes = (
"384 641 LINE",
"384 1463 LINE",
"200 1463 LINE",
"200 641 LINE"
);
}
);
width = 1512;
}
);
note = g44;
},
{
glyphname = g45;
lastChange = "2016-11-10 14:06:49 +0000";
layers = (
{
layerId = "F237E6AF-0333-4400-99CC-6EA362D5F741";
paths = (
{
closed = 1;
nodes = (
"792 -20 OFFCURVE",
"881 0 OFFCURVE",
"956 40 CURVE SMOOTH",
"1107 120 OFFCURVE",
"1190 270 OFFCURVE",
"1190 451 CURVE SMOOTH",
"1190 539 OFFCURVE",
"1169 620 OFFCURVE",
"1127 693 CURVE SMOOTH",
"1042 840 OFFCURVE",
"883 927 OFFCURVE",
"698 927 CURVE SMOOTH",
"625 927 OFFCURVE",
"553 915 OFFCURVE",
"483 890 CURVE",
"534 739 LINE",
"574 756 OFFCURVE",
"619 765 OFFCURVE",
"668 765 CURVE SMOOTH",
"733 765 OFFCURVE",
"791 753 OFFCURVE",
"840 730 CURVE SMOOTH",
"938 682 OFFCURVE",
"996 586 OFFCURVE",
"996 450 CURVE SMOOTH",
"996 247 OFFCURVE",
"890 142 OFFCURVE",
"686 142 CURVE SMOOTH",
"611 142 OFFCURVE",
"547 162 OFFCURVE",
"492 202 CURVE SMOOTH",
"382 281 OFFCURVE",
"319 436 OFFCURVE",
"319 663 CURVE SMOOTH",
"319 1067 OFFCURVE",
"527 1304 OFFCURVE",
"883 1304 CURVE SMOOTH",
"1018 1304 LINE",
"1018 1462 LINE",
"863 1462 LINE SMOOTH",
"723 1462 OFFCURVE",
"596 1429 OFFCURVE",
"483 1362 CURVE SMOOTH",
"255 1228 OFFCURVE",
"125 974 OFFCURVE",
"125 663 CURVE SMOOTH",
"125 216 OFFCURVE",
"317 -20 OFFCURVE",
"689 -20 CURVE SMOOTH"
);
}
);
width = 1315;
}
);
note = g45;
},
{
glyphname = g46;
lastChange = "2016-11-10 14:06:49 +0000";
layers = (
{
layerId = "F237E6AF-0333-4400-99CC-6EA362D5F741";
paths = (
{
closed = 1;
nodes = (
"124 0 LINE SMOOTH",
"368 0 OFFCURVE",
"589 49 OFFCURVE",
"787 147 CURVE SMOOTH",
"1182 342 OFFCURVE",
"1425 721 OFFCURVE",
"1425 1125 CURVE SMOOTH",
"1425 1244 OFFCURVE",
"1405 1363 OFFCURVE",
"1365 1482 CURVE",
"1178 1452 LINE",
"1214 1332 OFFCURVE",
"1232 1221 OFFCURVE",
"1232 1119 CURVE SMOOTH",
"1232 731 OFFCURVE",
"1006 436 OFFCURVE",
"554 233 CURVE",
"667 356 OFFCURVE",
"744 565 OFFCURVE",
"744 788 CURVE SMOOTH",
"744 1097 OFFCURVE",
"635 1329 OFFCURVE",
"417 1482 CURVE",
"315 1338 LINE",
"467 1217 OFFCURVE",
"550 1026 OFFCURVE",
"550 778 CURVE SMOOTH",
"550 663 OFFCURVE",
"530 559 OFFCURVE",
"489 464 CURVE SMOOTH",
"408 275 OFFCURVE",
"253 158 OFFCURVE",
"80 158 CURVE",
"80 0 LINE"
);
}
);
width = 1545;
}
);
note = g46;
},
{
glyphname = g47;
lastChange = "2016-11-10 14:06:49 +0000";
layers = (
{
layerId = "F237E6AF-0333-4400-99CC-6EA362D5F741";
paths = (
{
closed = 1;
nodes = (
"635 132 OFFCURVE",
"744 363 OFFCURVE",
"744 674 CURVE SMOOTH",
"744 899 OFFCURVE",
"666 1109 OFFCURVE",
"554 1229 CURVE",
"1006 1026 OFFCURVE",
"1232 731 OFFCURVE",
"1232 343 CURVE SMOOTH",
"1232 241 OFFCURVE",
"1214 130 OFFCURVE",
"1178 10 CURVE",
"1365 -20 LINE",
"1405 99 OFFCURVE",
"1425 218 OFFCURVE",
"1425 337 CURVE SMOOTH",
"1425 540 OFFCURVE",
"1368 729 OFFCURVE",
"1254 905 CURVE SMOOTH",
"1025 1257 OFFCURVE",
"611 1462 OFFCURVE",
"124 1462 CURVE SMOOTH",
"80 1462 LINE",
"80 1304 LINE",
"167 1304 OFFCURVE",
"246 1277 OFFCURVE",
"319 1222 CURVE SMOOTH",
"464 1113 OFFCURVE",
"550 911 OFFCURVE",
"550 684 CURVE SMOOTH",
"550 436 OFFCURVE",
"467 245 OFFCURVE",
"315 124 CURVE",
"417 -20 LINE"
);
}
);
width = 1545;
}
);
note = g47;
},
{
glyphname = g48;
lastChange = "2016-11-10 14:06:49 +0000";
layers = (
{
layerId = "F237E6AF-0333-4400-99CC-6EA362D5F741";
paths = (
{
closed = 1;
nodes = (
"1057 0 LINE",
"1019 180 OFFCURVE",
"995 365 OFFCURVE",
"984 554 CURVE",
"1040 568 OFFCURVE",
"1086 582 OFFCURVE",
"1123 595 CURVE",
"1123 754 LINE",
"1071 736 OFFCURVE",
"1023 722 OFFCURVE",
"979 713 CURVE",
"979 751 LINE SMOOTH",
"979 1002 OFFCURVE",
"1005 1239 OFFCURVE",
"1057 1462 CURVE",
"862 1462 LINE",
"811 1241 OFFCURVE",
"785 1004 OFFCURVE",
"785 751 CURVE SMOOTH",
"785 680 LINE",
"729 673 OFFCURVE",
"674 670 OFFCURVE",
"621 670 CURVE SMOOTH",
"436 670 OFFCURVE",
"344 748 OFFCURVE",
"344 905 CURVE SMOOTH",
"344 1462 LINE",
"160 1462 LINE",
"160 879 LINE SMOOTH",
"160 644 OFFCURVE",
"322 508 OFFCURVE",
"603 508 CURVE SMOOTH",
"664 508 OFFCURVE",
"727 512 OFFCURVE",
"792 520 CURVE",
"803 349 OFFCURVE",
"826 175 OFFCURVE",
"862 0 CURVE"
);
}
);
width = 1243;
}
);
note = g48;
},
{
glyphname = g49;
lastChange = "2016-11-10 14:06:49 +0000";
layers = (
{
layerId = "F237E6AF-0333-4400-99CC-6EA362D5F741";
paths = (
{
closed = 1;
nodes = (
"384 0 LINE",
"384 600 LINE",
"583 529 OFFCURVE",
"700 508 OFFCURVE",
"837 508 CURVE SMOOTH",
"1116 508 OFFCURVE",
"1267 642 OFFCURVE",
"1267 879 CURVE SMOOTH",
"1267 1462 LINE",
"1083 1462 LINE",
"1083 905 LINE SMOOTH",
"1083 748 OFFCURVE",
"1006 670 OFFCURVE",
"819 670 CURVE SMOOTH",
"694 670 OFFCURVE",
"605 682 OFFCURVE",
"384 754 CURVE",
"384 1462 LINE",
"200 1462 LINE",
"200 0 LINE"
);
}
);
width = 1427;
}
);
note = g49;
},
{
glyphname = g50;
lastChange = "2016-11-10 14:06:49 +0000";
layers = (
{
layerId = "F237E6AF-0333-4400-99CC-6EA362D5F741";
paths = (
{
closed = 1;
nodes = (
"206 0 LINE",
"608 1059 LINE SMOOTH",
"622 1093 OFFCURVE",
"643 1166 OFFCURVE",
"671 1278 CURVE",
"741 1059 LINE",
"1136 0 LINE",
"1327 0 LINE",
"757 1468 LINE",
"591 1468 LINE",
"20 0 LINE"
);
},
{
closed = 1;
nodes = (
"956 184 LINE",
"956 340 LINE",
"386 340 LINE",
"386 184 LINE"
);
}
);
width = 1347;
}
);
note = g50;
},
{
glyphname = g51;
lastChange = "2016-11-10 14:06:49 +0000";
layers = (
{
layerId = "F237E6AF-0333-4400-99CC-6EA362D5F741";
paths = (
{
closed = 1;
nodes = (
"384 0 LINE",
"384 685 LINE",
"1134 685 LINE",
"1134 0 LINE",
"1318 0 LINE",
"1318 1462 LINE",
"1134 1462 LINE",
"1134 841 LINE",
"384 841 LINE",
"384 1462 LINE",
"200 1462 LINE",
"200 0 LINE"
);
}
);
width = 1518;
}
);
note = g51;
},
{
glyphname = g52;
lastChange = "2016-11-10 14:06:49 +0000";
layers = (
{
layerId = "F237E6AF-0333-4400-99CC-6EA362D5F741";
paths = (
{
closed = 1;
nodes = (
"855 0 LINE",
"855 682 LINE",
"1322 682 LINE",
"1322 1462 LINE",
"1138 1462 LINE",
"1138 840 LINE",
"855 840 LINE",
"855 1462 LINE",
"671 1462 LINE",
"671 840 LINE",
"384 840 LINE",
"384 1462 LINE",
"200 1462 LINE",
"200 682 LINE",
"671 682 LINE",
"671 0 LINE"
);
}
